<svg width="198" height="193" viewBox="0 0 198 193" fill="none" xmlns="http://www.w3.org/2000/svg">
<path d="M100.605 65.1514C75.8408 65.1514 55.7559 85.7698 55.7559 111.214C55.7559 136.648 75.8308 157.277 100.605 157.277C125.368 157.277 145.453 136.659 145.453 111.214C145.453 85.7698 125.378 65.1514 100.605 65.1514ZM100.605 150.377C79.5498 150.377 62.4742 132.849 62.4742 111.214C62.4742 89.5895 79.5399 72.0516 100.605 72.0516C121.659 72.0516 138.735 89.5793 138.735 111.214C138.735 132.839 121.669 150.377 100.605 150.377Z" fill="#97D0F1"/>
<path d="M100.815 137.819C98.935 137.819 97.1355 137.049 95.8058 135.683L74.8211 114.13C72.0518 111.286 72.0518 106.676 74.8211 103.831C77.5904 100.987 82.0793 100.987 84.8486 103.831L100.815 120.23L140.105 79.8759C142.874 77.0316 147.363 77.0316 150.132 79.8759C152.901 82.7202 152.901 87.3306 150.132 90.1748L105.833 135.673C104.504 137.059 102.694 137.819 100.815 137.819Z" fill="#4D95E9"/>
</svg>
